<svg width="80" height="80" viewBox="0 0 80 80" fill="none" xmlns="http://www.w3.org/2000/svg">
<g clip-path="url(#clip0)">
<path d="M76.9183 8.75078C74.7165 6.37968 71.5892 5.01983 68.3383 5.01983H50.564C47.6129 2.81921 43.956 1.51498 40.0001 1.51498C36.0441 1.51498 32.3873 2.81921 29.4362 5.01983H11.6619C8.41097 5.01983 5.28362 6.37968 3.0819 8.75078C0.87674 11.1255 -0.206075 14.2059 0.0325195 17.425L0.792208 27.6714C0.839865 28.3149 1.40127 28.7961 2.04377 28.7502C2.68721 28.7024 3.17018 28.1421 3.12252 27.4986L2.36284 17.2522C2.17268 14.6886 3.03627 12.2339 4.79425 10.3408C6.58128 8.4164 9.02035 7.3564 11.6619 7.3564H26.868C24.026 10.4988 22.2927 14.6617 22.2927 19.2224C22.2927 28.9863 30.2363 36.9299 40.0002 36.9299C49.7642 36.9299 57.7078 28.9863 57.7078 19.2224C57.7078 14.6619 55.9745 10.4988 53.1324 7.3564H68.3386C70.9801 7.3564 73.4192 8.41625 75.2062 10.3408C76.9642 12.2339 77.8276 14.6884 77.6376 17.2522L73.9048 67.601C73.5495 72.3939 69.4648 76.1481 64.6057 76.1481H47.7895C47.1442 76.1481 46.6212 76.6711 46.6212 77.3165C46.6212 77.962 47.1443 78.4848 47.7895 78.4848H64.6054C67.5578 78.4848 70.3754 77.3883 72.539 75.3973C74.7056 73.4037 76.0181 70.6962 76.2348 67.7739L79.9676 17.425C80.2062 14.2059 79.1234 11.1255 76.9183 8.75078ZM55.3709 19.2225C55.3709 27.698 48.4756 34.5933 40.0001 34.5933C31.5246 34.5933 24.6293 27.6982 24.6293 19.2225C24.6293 10.7469 31.5246 3.85171 40.0001 3.85171C48.4756 3.85171 55.3709 10.7469 55.3709 19.2225Z" fill="#DBE9EE"/>
<path d="M40.6236 76.1481H15.3948C10.5356 76.1481 6.45105 72.3939 6.09589 67.6031L3.70214 34.5396C3.65557 33.8962 3.0962 33.4118 2.45245 33.4588C1.80885 33.5054 1.32494 34.0649 1.37151 34.7085L3.76542 67.774C3.98214 70.6964 5.29464 73.4039 7.46121 75.3975C9.6248 77.3884 12.4425 78.485 15.3948 78.485H40.6236C41.2689 78.485 41.7919 77.962 41.7919 77.3167C41.7919 76.6714 41.2689 76.1481 40.6236 76.1481Z" fill="#4F6D7A"/>
<path d="M40.0001 5.81346C39.3548 5.81346 38.8318 6.33643 38.8318 6.9819V9.56613C38.8318 10.2114 39.355 10.7344 40.0001 10.7344C40.6455 10.7344 41.1684 10.2114 41.1684 9.56597V6.9819C41.1684 6.33659 40.6453 5.81346 40.0001 5.81346Z" fill="#4F6D7A"/>
<path d="M40.0001 27.7107C39.3548 27.7107 38.8318 28.2336 38.8318 28.8789V31.463C38.8318 32.1083 39.355 32.6313 40.0001 32.6313C40.6455 32.6313 41.1684 32.1083 41.1684 31.463V28.8789C41.1686 28.2336 40.6455 27.7107 40.0001 27.7107Z" fill="#4F6D7A"/>
<path d="M36.1836 10.2756L34.8916 8.03767C34.5689 7.47876 33.8544 7.28767 33.2956 7.61001C32.7369 7.93267 32.5453 8.6472 32.868 9.20595L34.16 11.4439C34.3764 11.8188 34.7691 12.0283 35.1728 12.0283C35.3711 12.0283 35.5719 11.9778 35.7559 11.8716C36.3147 11.5489 36.5063 10.8344 36.1836 10.2756Z" fill="#4F6D7A"/>
<path d="M47.132 29.239L45.84 27.0011C45.5173 26.4424 44.8028 26.251 44.244 26.5735C43.6851 26.8961 43.4937 27.6107 43.8164 28.1694L45.1084 30.4073C45.3248 30.7821 45.7175 30.9916 46.1212 30.9916C46.3195 30.9916 46.5203 30.9412 46.7043 30.8349C47.2632 30.5123 47.4547 29.7977 47.132 29.239Z" fill="#4F6D7A"/>
<path d="M32.2215 13.3824L29.9837 12.0903C29.4248 11.7678 28.7103 11.9591 28.3878 12.518C28.0651 13.0767 28.2565 13.7913 28.8154 14.1139L31.0532 15.406C31.2373 15.5122 31.4381 15.5627 31.6364 15.5627C32.0401 15.5627 32.4328 15.3532 32.6492 14.9783C32.9718 14.4196 32.7804 13.705 32.2215 13.3824Z" fill="#4F6D7A"/>
<path d="M51.185 24.331L48.947 23.0389C48.3881 22.7164 47.6736 22.9077 47.3511 23.4666C47.0284 24.0254 47.22 24.7399 47.7787 25.0625L50.0167 26.3546C50.2007 26.4608 50.4015 26.5113 50.5998 26.5113C51.0036 26.5113 51.3964 26.3018 51.6126 25.9269C51.9353 25.3682 51.7437 24.6536 51.185 24.331Z" fill="#4F6D7A"/>
<path d="M30.3436 18.0541H27.7595C27.1142 18.0541 26.5912 18.5771 26.5912 19.2226C26.5912 19.868 27.1144 20.3908 27.7595 20.3908H30.3436C30.9889 20.3908 31.5119 19.8679 31.5119 19.2226C31.5119 18.5772 30.9888 18.0541 30.3436 18.0541Z" fill="#4F6D7A"/>
<path d="M52.2406 18.0541H49.6565C49.0112 18.0541 48.4882 18.5772 48.4882 19.2226C48.4882 19.8679 49.0113 20.3908 49.6565 20.3908H52.2406C52.8859 20.3908 53.4089 19.8679 53.4089 19.2226C53.4089 18.5772 52.8857 18.0541 52.2406 18.0541Z" fill="#4F6D7A"/>
<path d="M32.6492 23.4666C32.3265 22.9077 31.612 22.7164 31.0532 23.0389L28.8154 24.331C28.2565 24.6536 28.0651 25.3682 28.3878 25.9269C28.6042 26.3018 28.9968 26.5113 29.4006 26.5113C29.5989 26.5113 29.7997 26.4608 29.9837 26.3546L32.2215 25.0625C32.7804 24.7399 32.9718 24.0254 32.6492 23.4666Z" fill="#4F6D7A"/>
<path d="M51.6125 12.518C51.2898 11.9591 50.5753 11.768 50.0166 12.0903L47.7786 13.3824C47.2198 13.705 47.0283 14.4196 47.3509 14.9783C47.5673 15.3532 47.96 15.5627 48.3637 15.5627C48.562 15.5627 48.7628 15.5122 48.9469 15.406L51.1848 14.1139C51.7436 13.7913 51.9352 13.0767 51.6125 12.518Z" fill="#4F6D7A"/>
<path d="M35.756 26.5735C35.1971 26.2508 34.4825 26.4423 34.16 27.0012L32.868 29.239C32.5453 29.7977 32.7367 30.5123 33.2957 30.8349C33.4797 30.9412 33.6805 30.9916 33.8788 30.9916C34.2825 30.9916 34.6752 30.7821 34.8916 30.4073L36.1836 28.1694C36.5063 27.6107 36.3149 26.8962 35.756 26.5735Z" fill="#4F6D7A"/>
<path d="M46.7046 7.61001C46.1457 7.28751 45.4311 7.47876 45.1086 8.03767L43.8166 10.2756C43.4939 10.8344 43.6855 11.5489 44.2442 11.8716C44.4283 11.9777 44.6291 12.0283 44.8274 12.0283C45.2311 12.0283 45.6239 11.8188 45.8402 11.4439L47.1322 9.20595C47.4549 8.6472 47.2633 7.93266 46.7046 7.61001Z" fill="#4F6D7A"/>
<path d="M42.7722 17.4647C42.4108 16.7813 41.8219 16.2688 41.1042 15.9996V13.7483C41.1042 13.103 40.5811 12.58 39.936 12.58C39.2907 12.58 38.7677 13.103 38.7677 13.7483V16.0496C38.6888 16.0835 38.6102 16.1186 38.5335 16.1593C37.0049 16.9678 36.4192 18.8694 37.2278 20.3979C37.6196 21.1385 38.2763 21.6819 39.0769 21.9286C39.3819 22.0227 39.6938 22.0693 40.0039 22.0693C40.5083 22.0693 41.0082 21.9461 41.4666 21.7035C42.2071 21.3118 42.7507 20.6552 42.9972 19.8546C43.2438 19.0539 43.1639 18.2052 42.7722 17.4647ZM40.3739 19.6382C40.185 19.7379 39.9688 19.758 39.7647 19.6955C39.5605 19.6325 39.3932 19.4939 39.2933 19.3052C39.1935 19.1166 39.173 18.9 39.2358 18.6961C39.2988 18.4919 39.4374 18.3246 39.6261 18.2247C39.743 18.163 39.8705 18.1316 39.9991 18.1316C40.0782 18.1316 40.1577 18.1435 40.2353 18.1674C40.4394 18.2302 40.6067 18.3688 40.7066 18.5575C40.913 18.9469 40.7636 19.4318 40.3739 19.6382Z" fill="#4F6D7A"/>
</g>
<defs>
<clipPath id="clip0">
<rect width="80" height="80" fill="white"/>
</clipPath>
</defs>
</svg>
